REM DIRINDEX 1\5,1\2\6,1\2\7,1\3\8,1\3\9,1\4\10,1\4\11,1\4\12
REM DIRNAME folder01,folder02,folder03,folder04,folder05,folder06,folder07,folder08,folder09,folder10,folder11,folder12
TITLE ""
FILE "EJE_DB3000_5th_5C_07.mp3" MP3
  TRACK 01 AUDIO
    TITLE "0:"
    INDEX 01 00:00:00
  TRACK 02 AUDIO
    TITLE "10:cjc026_10362"
    INDEX 01 00:00:05
  TRACK 03 AUDIO
    TITLE "0:"
    INDEX 01 00:00:72
  TRACK 04 AUDIO
    TITLE "11:cjc026_10363"
    INDEX 01 00:01:24
  TRACK 05 AUDIO
    TITLE "0:"
    INDEX 01 00:02:53
  TRACK 06 AUDIO
    TITLE "12:cjc026_10364"
    INDEX 01 00:03:04
  TRACK 07 AUDIO
    TITLE "0:"
    INDEX 01 00:03:70
  TRACK 08 AUDIO
    TITLE "10:cjc026_10365"
    INDEX 01 00:04:21
  TRACK 09 AUDIO
    TITLE "0:"
    INDEX 01 00:05:20
  TRACK 10 AUDIO
    TITLE "11:cjc026_10366"
    INDEX 01 00:05:46
  TRACK 11 AUDIO
    TITLE "0:"
    INDEX 01 00:07:17
  TRACK 12 AUDIO
    TITLE "12:cjc026_10367"
    INDEX 01 00:07:41
  TRACK 13 AUDIO
    TITLE "0:"
    INDEX 01 00:08:38
  TRACK 14 AUDIO
    TITLE "10:cjc026_10368"
    INDEX 01 00:08:66
  TRACK 15 AUDIO
    TITLE "0:"
    INDEX 01 00:09:63
  TRACK 16 AUDIO
    TITLE "11:cjc026_10369"
    INDEX 01 00:10:16
  TRACK 17 AUDIO
    TITLE "0:"
    INDEX 01 00:11:54
  TRACK 18 AUDIO
    TITLE "12:cjc026_10370"
    INDEX 01 00:12:05
  TRACK 19 AUDIO
    TITLE "0:"
    INDEX 01 00:13:04
  TRACK 20 AUDIO
    TITLE "10:cjc026_10371"
    INDEX 01 00:13:30
  TRACK 21 AUDIO
    TITLE "0:"
    INDEX 01 00:14:37
  TRACK 22 AUDIO
    TITLE "11:cjc026_10372"
    INDEX 01 00:14:64
  TRACK 23 AUDIO
    TITLE "0:"
    INDEX 01 00:16:20
  TRACK 24 AUDIO
    TITLE "12:cjc026_10373"
    INDEX 01 00:16:46
  TRACK 25 AUDIO
    TITLE "0:"
    INDEX 01 00:17:53
  TRACK 26 AUDIO
    TITLE "10:cjc026_10374"
    INDEX 01 00:18:03
  TRACK 27 AUDIO
    TITLE "0:"
    INDEX 01 00:19:05
  TRACK 28 AUDIO
    TITLE "11:cjc026_10375"
    INDEX 01 00:19:32
  TRACK 29 AUDIO
    TITLE "0:"
    INDEX 01 00:20:69
  TRACK 30 AUDIO
    TITLE "12:cjc026_10376"
    INDEX 01 00:21:21
  TRACK 31 AUDIO
    TITLE "0:"
    INDEX 01 00:22:23
  TRACK 32 AUDIO
    TITLE "10:cjc026_10377"
    INDEX 01 00:22:48
  TRACK 33 AUDIO
    TITLE "0:"
    INDEX 01 00:23:46
  TRACK 34 AUDIO
    TITLE "11:cjc026_10378"
    INDEX 01 00:23:69
  TRACK 35 AUDIO
    TITLE "0:"
    INDEX 01 00:25:25
  TRACK 36 AUDIO
    TITLE "12:cjc026_10379"
    INDEX 01 00:25:50
  TRACK 37 AUDIO
    TITLE "0:"
    INDEX 01 00:26:48
  TRACK 38 AUDIO
    TITLE "10:cjc026_10380"
    INDEX 01 00:26:71
  TRACK 39 AUDIO
    TITLE "0:"
    INDEX 01 00:27:69
  TRACK 40 AUDIO
    TITLE "11:cjc026_10381"
    INDEX 01 00:28:21
  TRACK 41 AUDIO
    TITLE "0:"
    INDEX 01 00:30:01
  TRACK 42 AUDIO
    TITLE "12:cjc026_10382"
    INDEX 01 00:30:28
  TRACK 43 AUDIO
    TITLE "0:"
    INDEX 01 00:31:24
  TRACK 44 AUDIO
    TITLE "10:cjc026_10383"
    INDEX 01 00:31:51
  TRACK 45 AUDIO
    TITLE "0:"
    INDEX 01 00:32:47
  TRACK 46 AUDIO
    TITLE "11:cjc026_10384"
    INDEX 01 00:32:74
  TRACK 47 AUDIO
    TITLE "0:"
    INDEX 01 00:34:51
  TRACK 48 AUDIO
    TITLE "12:cjc026_10385"
    INDEX 01 00:35:02
  TRACK 49 AUDIO
    TITLE "0:"
    INDEX 01 00:35:74
  TRACK 50 AUDIO
    TITLE "10:cjc026_10386"
    INDEX 01 00:36:25
  TRACK 51 AUDIO
    TITLE "0:"
    INDEX 01 00:37:05
  TRACK 52 AUDIO
    TITLE "11:cjc026_10387"
    INDEX 01 00:37:30
  TRACK 53 AUDIO
    TITLE "0:"
    INDEX 01 00:38:53
  TRACK 54 AUDIO
    TITLE "12:cjc026_10388"
    INDEX 01 00:39:03
  TRACK 55 AUDIO
    TITLE "0:"
    INDEX 01 00:39:58
  TRACK 56 AUDIO
    TITLE "10:cjc026_10389"
    INDEX 01 00:40:09
  TRACK 57 AUDIO
    TITLE "0:"
    INDEX 01 00:40:68
  TRACK 58 AUDIO
    TITLE "11:cjc026_10390"
    INDEX 01 00:41:20
  TRACK 59 AUDIO
    TITLE "0:"
    INDEX 01 00:42:14
  TRACK 60 AUDIO
    TITLE "12:cjc026_10391"
    INDEX 01 00:42:43
  TRACK 61 AUDIO
    TITLE "0:"
    INDEX 01 00:43:27
  TRACK 62 AUDIO
    TITLE "10:cjc026_10392"
    INDEX 01 00:43:54
  TRACK 63 AUDIO
    TITLE "0:"
    INDEX 01 00:44:61
  TRACK 64 AUDIO
    TITLE "11:cjc026_10393"
    INDEX 01 00:45:12
  TRACK 65 AUDIO
    TITLE "0:"
    INDEX 01 00:46:11
  TRACK 66 AUDIO
    TITLE "12:cjc026_10394"
    INDEX 01 00:46:37
  TRACK 67 AUDIO
    TITLE "0:"
    INDEX 01 00:47:44
  TRACK 68 AUDIO
    TITLE "10:cjc026_10395"
    INDEX 01 00:47:70
  TRACK 69 AUDIO
    TITLE "0:"
    INDEX 01 00:48:71
  TRACK 70 AUDIO
    TITLE "11:cjc026_10396"
    INDEX 01 00:49:23
  TRACK 71 AUDIO
    TITLE "0:"
    INDEX 01 00:50:11
  TRACK 72 AUDIO
    TITLE "12:cjc026_10397"
    INDEX 01 00:50:35
  TRACK 73 AUDIO
    TITLE "0:"
    INDEX 01 00:51:36
  TRACK 74 AUDIO
    TITLE "10:cjc026_10398"
    INDEX 01 00:51:63
  TRACK 75 AUDIO
    TITLE "0:"
    INDEX 01 00:52:57
  TRACK 76 AUDIO
    TITLE "11:cjc026_10399"
    INDEX 01 00:53:09
  TRACK 77 AUDIO
    TITLE "0:"
    INDEX 01 00:54:13
  TRACK 78 AUDIO
    TITLE "12:cjc026_10400"
    INDEX 01 00:54:38
  TRACK 79 AUDIO
    TITLE "0:"
    INDEX 01 00:55:32
  TRACK 80 AUDIO
    TITLE "10:cjc026_10401"
    INDEX 01 00:55:59
  TRACK 81 AUDIO
    TITLE "0:"
    INDEX 01 00:56:61
  TRACK 82 AUDIO
    TITLE "11:cjc026_10402"
    INDEX 01 00:57:11
  TRACK 83 AUDIO
    TITLE "0:"
    INDEX 01 00:58:26
  TRACK 84 AUDIO
    TITLE "12:cjc026_10403"
    INDEX 01 00:58:54
  TRACK 85 AUDIO
    TITLE "0:"
    INDEX 01 00:59:55
